<svg width="20" height="20" viewBox="0 0 20 20" fill="none" xmlns="http://www.w3.org/2000/svg">
<mask id="mask0_81_184" style="mask-type:alpha" maskUnits="userSpaceOnUse" x="0" y="0" width="20" height="20">
<rect width="20" height="20" fill="#D9D9D9"/>
</mask>
<g mask="url(#mask0_81_184)">
<path fill-rule="evenodd" clip-rule="evenodd" d="M11 4C11 3.44772 10.5523 3 10 3C9.44772 3 9 3.44772 9 4V9H4C3.44772 9 3 9.44772 3 10C3 10.5523 3.44772 11 4 11H9V16C9 16.5523 9.44771 17 10 17C10.5523 17 11 16.5523 11 16V11H16C16.5523 11 17 10.5523 17 10C17 9.44772 16.5523 9 16 9H11V4Z" fill="white"/>
</g>
</svg>
