<svg width="72" height="72" viewBox="0 0 72 72" fill="none" xmlns="http://www.w3.org/2000/svg">
<mask id="mask0_2207_1101" style="mask-type:alpha" maskUnits="userSpaceOnUse" x="0" y="0" width="72" height="72">
<rect width="72" height="72" fill="#D9D9D9"/>
</mask>
<g mask="url(#mask0_2207_1101)">
<path d="M54.4999 36C54.4999 25.7827 46.2171 17.5 35.9999 17.5C33.3342 17.5 30.8003 18.0638 28.5108 19.0786C28.1194 19.2521 27.6587 19.1775 27.3563 18.8744L25.0915 16.6037C24.6288 16.1398 24.7298 15.3633 25.3131 15.0649C28.5191 13.4251 32.1515 12.5 35.9999 12.5C48.9786 12.5 59.4999 23.0213 59.4999 36C59.4999 36.6912 59.47 37.3759 59.4113 38.0528L63.8177 33.6464C64.5987 32.8653 65.8651 32.8653 66.6461 33.6464L67.3532 34.3535C68.1343 35.1345 68.1343 36.4009 67.3532 37.1819L57.7068 46.8284C57.3163 47.2189 56.6831 47.2189 56.2926 46.8284L46.6461 37.1819C45.8651 36.4009 45.8651 35.1345 46.6461 34.3535L47.3532 33.6464C48.1343 32.8653 49.4006 32.8653 50.1817 33.6464L54.4066 37.8713C54.4682 37.2565 54.4999 36.6323 54.4999 36Z" fill="#888B95"/>
<path d="M17.4391 36.1213C17.4391 46.3386 25.7218 54.6213 35.9391 54.6213C38.6047 54.6213 41.1387 54.0576 43.4282 53.0428C43.8196 52.8693 44.2803 52.9438 44.5826 53.2469L46.8475 55.5177C47.3101 55.9815 47.2091 56.7581 46.6259 57.0564C43.4198 58.6963 39.7875 59.6213 35.9391 59.6213C22.9604 59.6213 12.4391 49.1 12.4391 36.1213C12.4391 35.4302 12.469 34.7455 12.5277 34.0685L8.12127 38.4749C7.34022 39.256 6.07389 39.256 5.29284 38.4749L4.58573 37.7678C3.80468 36.9868 3.80468 35.7205 4.58573 34.9394L14.2322 25.293C14.6227 24.9024 15.2559 24.9024 15.6464 25.293L25.2928 34.9394C26.0739 35.7205 26.0739 36.9868 25.2928 37.7678L24.5857 38.4749C23.8047 39.256 22.5384 39.256 21.7573 38.4749L17.5324 34.25C17.4707 34.8648 17.4391 35.489 17.4391 36.1213Z" fill="#888B95"/>
</g>
</svg>
