<svg width="18" height="18" viewBox="0 0 18 18" fill="none" xmlns="http://www.w3.org/2000/svg">
<path d="M6.30112 6.29999H1.80112C1.56243 6.29999 1.33351 6.20517 1.16473 6.03639C0.995944 5.86761 0.901123 5.63869 0.901123 5.4V0.899999C0.901123 0.661305 0.995944 0.432386 1.16473 0.263604C1.33351 0.094821 1.56243 0 1.80112 0C2.03982 0 2.26874 0.094821 2.43752 0.263604C2.6063 0.432386 2.70112 0.661305 2.70112 0.899999V4.5H6.30112C6.53981 4.5 6.76873 4.59482 6.93751 4.7636C7.1063 4.93238 7.20112 5.1613 7.20112 5.4C7.20112 5.63869 7.1063 5.86761 6.93751 6.03639C6.76873 6.20517 6.53981 6.29999 6.30112 6.29999Z" fill="white"/>
<path d="M9.00121 18C7.81932 18 6.64899 17.7672 5.55707 17.3149C4.46514 16.8626 3.47298 16.1997 2.63726 15.3639C0.949432 13.6761 0.0012207 11.3869 0.0012207 8.99999C0.0012207 8.7613 0.0960417 8.53238 0.264824 8.3636C0.433607 8.19481 0.662525 8.09999 0.90122 8.09999C1.13991 8.09999 1.36883 8.19481 1.53762 8.3636C1.7064 8.53238 1.80122 8.7613 1.80122 8.99999C1.80185 10.7614 2.44811 12.4614 3.6177 13.7784C4.78729 15.0954 6.39906 15.938 8.14802 16.1467C9.89698 16.3554 11.6618 15.9158 13.1084 14.911C14.5551 13.9062 15.5833 12.406 15.9984 10.6943C16.4135 8.98253 16.1868 7.17799 15.3611 5.62216C14.5353 4.06632 13.168 2.86713 11.5177 2.25151C9.86741 1.63589 8.04872 1.64656 6.40577 2.2815C4.76283 2.91643 3.40962 4.13158 2.60222 5.69699C2.49242 5.90943 2.30273 6.06955 2.07487 6.14213C1.84701 6.21471 1.59966 6.19379 1.38722 6.08399C1.17478 5.9742 1.01466 5.7845 0.942085 5.55665C0.869509 5.32879 0.89042 5.08143 1.00022 4.869C1.73345 3.44977 2.8312 2.25127 4.18077 1.39657C5.53033 0.541871 7.08306 0.0617715 8.67951 0.00557239C10.276 -0.0506268 11.8586 0.319099 13.2649 1.07679C14.6713 1.83447 15.8506 2.95281 16.6818 4.31697C17.513 5.68112 17.9661 7.24193 17.9947 8.83912C18.0232 10.4363 17.6262 12.0123 16.8443 13.4053C16.0623 14.7983 14.9238 15.9581 13.5454 16.7656C12.1671 17.573 10.5987 17.9991 9.00121 18Z" fill="white"/>
</svg>
