<svg width="36" height="36" viewBox="0 0 36 36" fill="none" xmlns="http://www.w3.org/2000/svg">
<g filter="url(#filter0_ii_2256_276)">
<rect width="36" height="36" rx="8" fill="#252C3E"/>
</g>
<mask id="mask0_2256_276" style="mask-type:alpha" maskUnits="userSpaceOnUse" x="8" y="8" width="20" height="20">
<rect x="8" y="8" width="20" height="20" fill="#D9D9D9"/>
</mask>
<g mask="url(#mask0_2256_276)">
<path d="M26 18.7619L19 14.9286H17L10 18.7619C9.68333 18.9365 9.4375 19.1706 9.2625 19.4643C9.0875 19.7579 9 20.0794 9 20.4286V22.2381C9 22.5873 9.0875 22.9087 9.2625 23.2024C9.4375 23.496 9.68333 23.7302 10 23.9048L17 27.7381C17.3167 27.9127 17.65 28 18 28C18.35 28 18.6833 27.9127 19 27.7381L26 23.9048C26.3167 23.7302 26.5625 23.496 26.7375 23.2024C26.9125 22.9087 27 22.5873 27 22.2381V20.4286C27 20.0794 26.9125 19.7579 26.7375 19.4643C26.5625 19.1706 26.3167 18.9365 26 18.7619Z" fill="#4B5166"/>
<path d="M13.5925 19.8696L17.7734 22.16C17.9233 22.2421 18.1048 22.2419 18.2545 22.1596L22.4192 19.8692C22.7645 19.6793 22.7647 19.1834 22.4197 18.9932L18.255 16.6975C18.105 16.6148 17.9231 16.6147 17.7729 16.6971L13.592 18.9928C13.2461 19.1828 13.2463 19.6799 13.5925 19.8696Z" fill="#7F859B"/>
<path fill-rule="evenodd" clip-rule="evenodd" d="M19 14.8551C20.4457 14.4248 21.5 13.0855 21.5 11.5C21.5 9.567 19.933 8 18 8C16.067 8 14.5 9.567 14.5 11.5C14.5 13.0855 15.5543 14.4248 17 14.8551V19.381C17 19.9333 17.4477 20.381 18 20.381C18.5523 20.381 19 19.9333 19 19.381V14.8551Z" fill="#4B5166"/>
</g>
<defs>
<filter id="filter0_ii_2256_276" x="0" y="-1" width="36" height="38" filterUnits="userSpaceOnUse" color-interpolation-filters="sRGB">
<feFlood flood-opacity="0" result="BackgroundImageFix"/>
<feBlend mode="normal" in="SourceGraphic" in2="BackgroundImageFix" result="shape"/>
<feColorMatrix in="SourceAlpha" type="matrix" values="0 0 0 0 0 0 0 0 0 0 0 0 0 0 0 0 0 0 127 0" result="hardAlpha"/>
<feOffset dy="2"/>
<feGaussianBlur stdDeviation="0.5"/>
<feComposite in2="hardAlpha" operator="arithmetic" k2="-1" k3="1"/>
<feColorMatrix type="matrix" values="0 0 0 0 0.201772 0 0 0 0 0.234685 0 0 0 0 0.319318 0 0 0 1 0"/>
<feBlend mode="normal" in2="shape" result="effect1_innerShadow_2256_276"/>
<feColorMatrix in="SourceAlpha" type="matrix" values="0 0 0 0 0 0 0 0 0 0 0 0 0 0 0 0 0 0 127 0" result="hardAlpha"/>
<feOffset dy="-2"/>
<feGaussianBlur stdDeviation="0.5"/>
<feComposite in2="hardAlpha" operator="arithmetic" k2="-1" k3="1"/>
<feColorMatrix type="matrix" values="0 0 0 0 0.104638 0 0 0 0 0.137165 0 0 0 0 0.220807 0 0 0 1 0"/>
<feBlend mode="normal" in2="effect1_innerShadow_2256_276" result="effect2_innerShadow_2256_276"/>
</filter>
</defs>
</svg>
