<svg width="72" height="72" viewBox="0 0 72 72" fill="none" xmlns="http://www.w3.org/2000/svg">
<g opacity="0.5">
<mask id="mask0_95_808" style="mask-type:alpha" maskUnits="userSpaceOnUse" x="0" y="0" width="72" height="72">
<rect width="72" height="72" fill="#D9D9D9"/>
</mask>
<g mask="url(#mask0_95_808)">
<path d="M29 13H61C64.3137 13 67 15.6863 67 19V27" stroke="white" stroke-width="2" stroke-linecap="round"/>
<path d="M5.5 15C5.5 12.5147 7.51472 10.5 10 10.5H24.5147C25.7082 10.5 26.8528 10.9741 27.6967 11.818L28.7574 10.7574L27.6967 11.818L34.182 18.3033C35.5885 19.7098 37.4962 20.5 39.4853 20.5H62C64.4853 20.5 66.5 22.5147 66.5 25V57C66.5 59.4853 64.4853 61.5 62 61.5H10C7.51472 61.5 5.5 59.4853 5.5 57V15Z" fill="white" stroke="white" stroke-width="3"/>
<rect x="50" y="56" width="12" height="3" rx="1.5" fill="#D9D9D9"/>
<rect x="42" y="56" width="6" height="3" rx="1.5" fill="#D9D9D9"/>
</g>
</g>
</svg>
