<svg width="36" height="36" viewBox="0 0 36 36" fill="none" xmlns="http://www.w3.org/2000/svg">
<g filter="url(#filter0_ii_11_405)">
<rect width="36" height="36" rx="8" fill="#252C3E"/>
</g>
<mask id="mask0_11_405" style="mask-type:alpha" maskUnits="userSpaceOnUse" x="8" y="8" width="20" height="20">
<rect x="8" y="8" width="20" height="20" fill="#D9D9D9"/>
</mask>
<g mask="url(#mask0_11_405)">
<path fill-rule="evenodd" clip-rule="evenodd" d="M16.5228 8.34333C15.1684 8.13721 13.722 7.91708 13.0001 9.00007C11.6006 11.0995 13.3128 13.252 16.3252 13.8424C13.4197 14.9655 10.3357 18.6573 9.50004 22C8.79 24.8401 9.84443 26.6719 10.5157 27.4955C10.8026 27.8475 11.2475 28 11.7016 28H24.6149C24.8693 28 25.1239 27.954 25.3278 27.8018C25.9703 27.3222 27.2684 25.8419 26.5 22C25.6766 17.8827 22.6701 14.7826 19.8025 13.8163C22.7354 13.1909 24.3798 11.0696 23.0001 9.00008C22.2781 7.91708 20.8317 8.1372 19.4773 8.34333C18.9557 8.42271 18.4477 8.50002 18 8.50002C17.5523 8.50002 17.0444 8.42271 16.5228 8.34333Z" fill="#4B5166"/>
<rect x="8" y="20" width="8" height="4" rx="2" fill="#7F859B"/>
<rect x="8" y="24" width="8" height="4" rx="2" fill="#7F859B"/>
</g>
<defs>
<filter id="filter0_ii_11_405" x="0" y="-1" width="36" height="38" filterUnits="userSpaceOnUse" color-interpolation-filters="sRGB">
<feFlood flood-opacity="0" result="BackgroundImageFix"/>
<feBlend mode="normal" in="SourceGraphic" in2="BackgroundImageFix" result="shape"/>
<feColorMatrix in="SourceAlpha" type="matrix" values="0 0 0 0 0 0 0 0 0 0 0 0 0 0 0 0 0 0 127 0" result="hardAlpha"/>
<feOffset dy="2"/>
<feGaussianBlur stdDeviation="0.5"/>
<feComposite in2="hardAlpha" operator="arithmetic" k2="-1" k3="1"/>
<feColorMatrix type="matrix" values="0 0 0 0 0.201772 0 0 0 0 0.234685 0 0 0 0 0.319318 0 0 0 1 0"/>
<feBlend mode="normal" in2="shape" result="effect1_innerShadow_11_405"/>
<feColorMatrix in="SourceAlpha" type="matrix" values="0 0 0 0 0 0 0 0 0 0 0 0 0 0 0 0 0 0 127 0" result="hardAlpha"/>
<feOffset dy="-2"/>
<feGaussianBlur stdDeviation="0.5"/>
<feComposite in2="hardAlpha" operator="arithmetic" k2="-1" k3="1"/>
<feColorMatrix type="matrix" values="0 0 0 0 0.104638 0 0 0 0 0.137165 0 0 0 0 0.220807 0 0 0 1 0"/>
<feBlend mode="normal" in2="effect1_innerShadow_11_405" result="effect2_innerShadow_11_405"/>
</filter>
</defs>
</svg>
