<svg width="36" height="36" viewBox="0 0 36 36" fill="none" xmlns="http://www.w3.org/2000/svg">
<g filter="url(#filter0_ii_11_446)">
<rect width="36" height="36" rx="8" fill="#252C3E"/>
</g>
<mask id="mask0_11_446" style="mask-type:alpha" maskUnits="userSpaceOnUse" x="8" y="8" width="20" height="20">
<rect x="8" y="8" width="20" height="20" fill="#D9D9D9"/>
</mask>
<g mask="url(#mask0_11_446)">
<path fill-rule="evenodd" clip-rule="evenodd" d="M15 10C15 8.89543 15.8954 8 17 8H19C20.1045 8 21 8.89543 21 10C21 11.2461 22.349 12.025 23.4282 11.4019C24.3847 10.8496 25.6079 11.1774 26.1602 12.134L27.1602 13.866C27.7125 14.8226 27.3847 16.0458 26.4282 16.5981C25.3489 17.2211 25.349 18.7789 26.4282 19.4019C27.3847 19.9542 27.7125 21.1774 27.1602 22.134L26.1602 23.866C25.6079 24.8226 24.3847 25.1504 23.4282 24.5981C22.349 23.975 21 24.7538 21 26C21 27.1046 20.1045 28 19 28H17C15.8954 28 15 27.1046 15 26C15 24.7538 13.6509 23.975 12.5717 24.5981C11.6152 25.1504 10.392 24.8226 9.83969 23.866L8.83969 22.134C8.28741 21.1774 8.61516 19.9542 9.57175 19.4019C10.6509 18.7788 10.6509 17.2212 9.57176 16.5981C8.61517 16.0458 8.28742 14.8226 8.83971 13.866L9.83971 12.134C10.392 11.1774 11.6152 10.8496 12.5718 11.4019C13.651 12.025 15 11.2462 15 10Z" fill="#4B5166"/>
<circle cx="18" cy="18" r="3" fill="#7F859B"/>
</g>
<defs>
<filter id="filter0_ii_11_446" x="0" y="-1" width="36" height="38" filterUnits="userSpaceOnUse" color-interpolation-filters="sRGB">
<feFlood flood-opacity="0" result="BackgroundImageFix"/>
<feBlend mode="normal" in="SourceGraphic" in2="BackgroundImageFix" result="shape"/>
<feColorMatrix in="SourceAlpha" type="matrix" values="0 0 0 0 0 0 0 0 0 0 0 0 0 0 0 0 0 0 127 0" result="hardAlpha"/>
<feOffset dy="2"/>
<feGaussianBlur stdDeviation="0.5"/>
<feComposite in2="hardAlpha" operator="arithmetic" k2="-1" k3="1"/>
<feColorMatrix type="matrix" values="0 0 0 0 0.201772 0 0 0 0 0.234685 0 0 0 0 0.319318 0 0 0 1 0"/>
<feBlend mode="normal" in2="shape" result="effect1_innerShadow_11_446"/>
<feColorMatrix in="SourceAlpha" type="matrix" values="0 0 0 0 0 0 0 0 0 0 0 0 0 0 0 0 0 0 127 0" result="hardAlpha"/>
<feOffset dy="-2"/>
<feGaussianBlur stdDeviation="0.5"/>
<feComposite in2="hardAlpha" operator="arithmetic" k2="-1" k3="1"/>
<feColorMatrix type="matrix" values="0 0 0 0 0.104638 0 0 0 0 0.137165 0 0 0 0 0.220807 0 0 0 1 0"/>
<feBlend mode="normal" in2="effect1_innerShadow_11_446" result="effect2_innerShadow_11_446"/>
</filter>
</defs>
</svg>
