<svg width="20" height="20" viewBox="0 0 20 20" fill="none" xmlns="http://www.w3.org/2000/svg">
<mask id="mask0_29_24" style="mask-type:alpha" maskUnits="userSpaceOnUse" x="0" y="0" width="20" height="20">
<rect width="20" height="20" fill="#D9D9D9"/>
</mask>
<g mask="url(#mask0_29_24)">
<path fill-rule="evenodd" clip-rule="evenodd" d="M7.00008 2C7.00008 0.895431 7.89551 0 9.00008 0H11.0001C12.1046 0 13.0001 0.895431 13.0001 2C13.0001 3.24615 14.3491 4.02499 15.4283 3.40192C16.3849 2.84963 17.608 3.17738 18.1603 4.13397L19.1603 5.86602C19.7126 6.8226 19.3849 8.04578 18.4283 8.59807C17.3491 9.22115 17.3491 10.7789 18.4283 11.4019C19.3849 11.9542 19.7126 13.1774 19.1603 14.134L18.1603 15.866C17.6081 16.8226 16.3849 17.1504 15.4283 16.5981C14.3491 15.975 13.0001 16.7538 13.0001 18C13.0001 19.1046 12.1046 20 11.0001 20H9.00008C7.89551 20 7.00008 19.1046 7.00008 18C7.00008 16.7538 5.65107 15.975 4.57187 16.5981C3.61528 17.1504 2.3921 16.8226 1.83982 15.866L0.839816 14.134C0.287532 13.1774 0.615282 11.9542 1.57187 11.4019C2.65106 10.7788 2.65107 9.22116 1.57188 8.59808C0.615294 8.0458 0.287543 6.82262 0.839828 5.86603L1.83983 4.13398C2.39211 3.1774 3.61529 2.84965 4.57188 3.40193C5.65108 4.02501 7.00008 3.24615 7.00008 2Z" fill="white"/>
<circle cx="10" cy="10" r="3" fill="#AC9FF6"/>
</g>
</svg>
