<svg width="20" height="20" viewBox="0 0 20 20" fill="none" xmlns="http://www.w3.org/2000/svg">
<mask id="mask0_81_264" style="mask-type:alpha" maskUnits="userSpaceOnUse" x="0" y="0" width="20" height="20">
<rect width="20" height="20" fill="#D9D9D9"/>
</mask>
<g mask="url(#mask0_81_264)">
<path fill-rule="evenodd" clip-rule="evenodd" d="M6.99995 2C6.99995 0.895431 7.89538 0 8.99995 0H11C12.1045 0 13 0.895431 13 2C13 3.24615 14.349 4.02499 15.4282 3.40192C16.3847 2.84963 17.6079 3.17738 18.1602 4.13397L19.1602 5.86602C19.7125 6.8226 19.3847 8.04578 18.4282 8.59807C17.3489 9.22115 17.349 10.7789 18.4282 11.4019C19.3847 11.9542 19.7125 13.1774 19.1602 14.134L18.1602 15.866C17.6079 16.8226 16.3847 17.1504 15.4282 16.5981C14.349 15.975 13 16.7538 13 18C13 19.1046 12.1045 20 11 20H8.99995C7.89538 20 6.99995 19.1046 6.99995 18C6.99995 16.7538 5.65095 15.975 4.57175 16.5981C3.61516 17.1504 2.39198 16.8226 1.83969 15.866L0.839694 14.134C0.28741 13.1774 0.61516 11.9542 1.57175 11.4019C2.65094 10.7788 2.65095 9.22116 1.57176 8.59808C0.615172 8.0458 0.287421 6.82262 0.839706 5.86603L1.83971 4.13398C2.39199 3.1774 3.61517 2.84965 4.57176 3.40193C5.65096 4.02501 6.99995 3.24615 6.99995 2Z" fill="white"/>
<circle cx="10" cy="10" r="3" fill="#AC9FF6"/>
</g>
</svg>
